# xmcd
#
# Track frame offsets:
#	150
#	22475
#	42316
#	68021
#	87136
#	101279
#	117920
#	133372
#	150484
#	166414
#	185810
#	202230
#	221365
#	238133
#	256095
#	272985
#	291547
#	307295
#
# Disc length: 4277 seconds
# Revision: 0
# Processed by: cddbd v1.5.2PL0 Copyright (c) Steve Scherf et al.
# Submitted via: dBpowerAMP V12.0
#
DISCID=1d10b312
DTITLE=Danny Brooks - This World Is Not Your Friend
DYEAR=2015
DGENRE=Blues Texas Country
TTITLE0=This World Is Not Your Friend
TTITLE1=Blue Highway
TTITLE2=All God's Children
TTITLE3=Halfway To Heaven
TTITLE4=Ride Around Texas
TTITLE5=When A Little Means A Lot
TTITLE6=Spirit of Rock n Roll
TTITLE7=Sad Song
TTITLE8=Got To Find My Way Back Home
TTITLE9=One More Mile
TTITLE10=Country Lullaby
TTITLE11=Good Love Is Hard To Find
TTITLE12=One Love
TTITLE13=Lights of Llano
TTITLE14=Who You Going To Call
TTITLE15=I'm Looking Up
TTITLE16=When I'm Holding You
TTITLE17=This World Is Not My Friend
EXTD=
EXTT0=
EXTT1=
EXTT2=
EXTT3=
EXTT4=
EXTT5=
EXTT6=
EXTT7=
EXTT8=
EXTT9=
EXTT10=
EXTT11=
EXTT12=
EXTT13=
EXTT14=
EXTT15=
EXTT16=
EXTT17=
PLAYORDER=
